<svg xmlns="http://www.w3.org/2000/svg" xmlns:xlink="http://www.w3.org/1999/xlink" version="1.1" width="256" height="256" viewBox="0 0 256 256" xml:space="preserve">

<defs>
</defs>
<g style="stroke: none; stroke-width: 0; stroke-dasharray: none; stroke-linecap: butt; stroke-linejoin: miter; stroke-miterlimit: 10; fill: none; fill-rule: nonzero; opacity: 1;" transform="translate(1.4065934065934016 1.4065934065934016) scale(2.81 2.81)" >
	<path d="M 72.887 59.628 c -4.666 0 -8.462 -3.796 -8.462 -8.461 c 0 -4.666 3.796 -8.462 8.462 -8.462 s 8.462 3.796 8.462 8.462 C 81.349 55.832 77.553 59.628 72.887 59.628 z M 72.887 44.705 c -3.563 0 -6.462 2.898 -6.462 6.462 c 0 3.563 2.898 6.461 6.462 6.461 s 6.462 -2.898 6.462 -6.461 C 79.349 47.604 76.45 44.705 72.887 44.705 z" style="stroke: none; stroke-width: 1; stroke-dasharray: none; stroke-linecap: butt; stroke-linejoin: miter; stroke-miterlimit: 10; fill: rgb(0,0,0); fill-rule: nonzero; opacity: 1;" transform=" matrix(1 0 0 1 0 0) " stroke-linecap="round" />
	<path d="M 14.598 59.628 c -4.666 0 -8.462 -3.796 -8.462 -8.461 c 0 -4.666 3.796 -8.462 8.462 -8.462 c 4.666 0 8.461 3.796 8.461 8.462 C 23.06 55.832 19.264 59.628 14.598 59.628 z M 14.598 44.705 c -3.563 0 -6.462 2.898 -6.462 6.462 c 0 3.563 2.899 6.461 6.462 6.461 s 6.461 -2.898 6.461 -6.461 C 21.06 47.604 18.161 44.705 14.598 44.705 z" style="stroke: none; stroke-width: 1; stroke-dasharray: none; stroke-linecap: butt; stroke-linejoin: miter; stroke-miterlimit: 10; fill: rgb(0,0,0); fill-rule: nonzero; opacity: 1;" transform=" matrix(1 0 0 1 0 0) " stroke-linecap="round" />
	<path d="M 66.115 55.3 H 21.372 c -0.552 0 -1 -0.447 -1 -1 s 0.448 -1 1 -1 h 44.743 c 0.553 0 1 0.447 1 1 S 66.668 55.3 66.115 55.3 z" style="stroke: none; stroke-width: 1; stroke-dasharray: none; stroke-linecap: butt; stroke-linejoin: miter; stroke-miterlimit: 10; fill: rgb(0,0,0); fill-rule: nonzero; opacity: 1;" transform=" matrix(1 0 0 1 0 0) " stroke-linecap="round" />
	<path d="M 72.89 52.17 c -0.27 0 -0.52 -0.11 -0.71 -0.3 c -0.189 -0.181 -0.29 -0.431 -0.29 -0.7 c 0 -0.271 0.101 -0.53 0.29 -0.71 c 0.05 -0.05 0.101 -0.09 0.15 -0.12 c 0.06 -0.04 0.109 -0.07 0.17 -0.1 c 0.06 -0.021 0.13 -0.04 0.189 -0.051 c 0.33 -0.069 0.67 0.04 0.9 0.271 c 0.19 0.189 0.3 0.439 0.3 0.71 c 0 0.26 -0.109 0.52 -0.3 0.7 c -0.09 0.1 -0.2 0.17 -0.32 0.22 S 73.02 52.17 72.89 52.17 z" style="stroke: none; stroke-width: 1; stroke-dasharray: none; stroke-linecap: butt; stroke-linejoin: miter; stroke-miterlimit: 10; fill: rgb(0,0,0); fill-rule: nonzero; opacity: 1;" transform=" matrix(1 0 0 1 0 0) " stroke-linecap="round" />
	<path d="M 14.6 52.17 c -0.27 0 -0.52 -0.11 -0.71 -0.3 c -0.19 -0.181 -0.29 -0.431 -0.29 -0.7 c 0 -0.271 0.11 -0.53 0.29 -0.71 c 0.37 -0.37 1.04 -0.37 1.42 0 c 0.18 0.189 0.29 0.439 0.29 0.71 c 0 0.26 -0.11 0.51 -0.29 0.7 C 15.12 52.06 14.86 52.17 14.6 52.17 z" style="stroke: none; stroke-width: 1; stroke-dasharray: none; stroke-linecap: butt; stroke-linejoin: miter; stroke-miterlimit: 10; fill: rgb(0,0,0); fill-rule: nonzero; opacity: 1;" transform=" matrix(1 0 0 1 0 0) " stroke-linecap="round" />
	<path d="M 86.222 55.3 h -6.569 c -0.553 0 -1 -0.447 -1 -1 s 0.447 -1 1 -1 h 6.569 c 0.98 0 1.778 -0.798 1.778 -1.778 c 0 -4.334 -2.606 -8.159 -6.641 -9.743 l -12.476 -4.899 c -14.146 -5.014 -29.38 -5.872 -44.029 -2.466 l -11.383 3.384 c -1.618 0.378 -3.216 0.476 -4.807 0.307 L 2.14 37.412 l 1.424 12.092 c 0.255 2.164 2.09 3.796 4.269 3.796 c 0.552 0 1 0.447 1 1 s -0.448 1 -1 1 c -3.192 0 -5.882 -2.391 -6.255 -5.562 L 0.007 36.402 c -0.036 -0.302 0.068 -0.604 0.282 -0.82 c 0.214 -0.216 0.513 -0.324 0.817 -0.292 l 7.77 0.824 c 1.368 0.145 2.742 0.06 4.085 -0.25 l 11.383 -3.384 c 15.08 -3.507 30.703 -2.629 45.24 2.525 l 12.507 4.911 C 86.896 41.804 90 46.358 90 51.521 C 90 53.604 88.305 55.3 86.222 55.3 z" style="stroke: none; stroke-width: 1; stroke-dasharray: none; stroke-linecap: butt; stroke-linejoin: miter; stroke-miterlimit: 10; fill: rgb(0,0,0); fill-rule: nonzero; opacity: 1;" transform=" matrix(1 0 0 1 0 0) " stroke-linecap="round" />
	<path d="M 64.412 40.944 H 29.64 c -2.564 0 -5.097 -0.858 -7.134 -2.415 l -3.623 -2.77 c -0.439 -0.335 -0.522 -0.963 -0.187 -1.402 c 0.336 -0.438 0.964 -0.522 1.402 -0.187 l 3.623 2.77 c 1.69 1.292 3.792 2.004 5.919 2.004 h 34.772 c 0.608 0 1.221 -0.058 1.822 -0.172 l 8.425 -1.607 c 0.552 -0.101 1.066 0.253 1.17 0.795 c 0.104 0.542 -0.253 1.066 -0.795 1.17 l -8.426 1.607 C 65.884 40.875 65.146 40.944 64.412 40.944 z" style="stroke: none; stroke-width: 1; stroke-dasharray: none; stroke-linecap: butt; stroke-linejoin: miter; stroke-miterlimit: 10; fill: rgb(0,0,0); fill-rule: nonzero; opacity: 1;" transform=" matrix(1 0 0 1 0 0) " stroke-linecap="round" />
	<path d="M 42.152 40.945 c -0.388 0 -0.758 -0.228 -0.92 -0.607 l -3.619 -8.465 c -0.217 -0.508 0.019 -1.096 0.526 -1.313 c 0.507 -0.217 1.095 0.018 1.313 0.526 l 3.619 8.465 c 0.217 0.508 -0.019 1.096 -0.526 1.313 C 42.417 40.918 42.283 40.945 42.152 40.945 z" style="stroke: none; stroke-width: 1; stroke-dasharray: none; stroke-linecap: butt; stroke-linejoin: miter; stroke-miterlimit: 10; fill: rgb(0,0,0); fill-rule: nonzero; opacity: 1;" transform=" matrix(1 0 0 1 0 0) " stroke-linecap="round" />
</g>
</svg>