<svg xmlns="http://www.w3.org/2000/svg" xmlns:xlink="http://www.w3.org/1999/xlink" version="1.1" width="256" height="256" viewBox="0 0 256 256" xml:space="preserve">

<defs>
</defs>
<g style="stroke: none; stroke-width: 0; stroke-dasharray: none; stroke-linecap: butt; stroke-linejoin: miter; stroke-miterlimit: 10; fill: none; fill-rule: nonzero; opacity: 1;" transform="translate(1.4065934065934016 1.4065934065934016) scale(2.81 2.81)" >
	<path d="M 75.442 64.767 c -4.577 0 -8.301 -3.724 -8.301 -8.3 s 3.724 -8.3 8.301 -8.3 c 4.576 0 8.3 3.724 8.3 8.3 S 80.018 64.767 75.442 64.767 z M 75.442 50.167 c -3.475 0 -6.301 2.826 -6.301 6.3 s 2.826 6.3 6.301 6.3 c 3.474 0 6.3 -2.826 6.3 -6.3 S 78.915 50.167 75.442 50.167 z" style="stroke: none; stroke-width: 1; stroke-dasharray: none; stroke-linecap: butt; stroke-linejoin: miter; stroke-miterlimit: 10; fill: rgb(0,0,0); fill-rule: nonzero; opacity: 1;" transform=" matrix(1 0 0 1 0 0) " stroke-linecap="round" />
	<path d="M 17.687 64.767 c -4.577 0 -8.3 -3.724 -8.3 -8.3 s 3.724 -8.3 8.3 -8.3 s 8.3 3.724 8.3 8.3 S 22.264 64.767 17.687 64.767 z M 17.687 50.167 c -3.474 0 -6.3 2.826 -6.3 6.3 s 2.826 6.3 6.3 6.3 c 3.474 0 6.3 -2.826 6.3 -6.3 S 21.16 50.167 17.687 50.167 z" style="stroke: none; stroke-width: 1; stroke-dasharray: none; stroke-linecap: butt; stroke-linejoin: miter; stroke-miterlimit: 10; fill: rgb(0,0,0); fill-rule: nonzero; opacity: 1;" transform=" matrix(1 0 0 1 0 0) " stroke-linecap="round" />
	<path d="M 11.06 60.531 c -0.121 0 -0.244 -0.021 -0.364 -0.068 L 3.858 57.79 C 1.514 56.875 0 54.657 0 52.141 v -8.826 c 0 -1.093 0.295 -2.166 0.855 -3.105 l 7.279 -12.222 c 1.012 -1.7 2.87 -2.755 4.848 -2.755 h 39.417 c 2.046 0 4 0.875 5.363 2.4 l 6.122 6.849 l 19.194 1.68 c 3.032 0.265 5.464 2.655 5.781 5.682 l 1.099 10.475 c 0.404 3.848 -2.272 7.336 -6.095 7.94 l -1.643 0.26 c -0.543 0.081 -1.057 -0.287 -1.144 -0.833 c -0.086 -0.545 0.287 -1.057 0.833 -1.144 l 1.642 -0.259 c 2.77 -0.438 4.711 -2.967 4.418 -5.756 l -1.099 -10.475 c -0.219 -2.077 -1.887 -3.716 -3.967 -3.898 L 63.317 36.44 c -0.254 -0.022 -0.489 -0.14 -0.658 -0.33 l -6.387 -7.145 c -0.984 -1.102 -2.396 -1.733 -3.872 -1.733 H 12.982 c -1.277 0 -2.477 0.682 -3.129 1.779 l -7.28 12.222 C 2.198 41.863 2 42.583 2 43.315 v 8.826 c 0 1.687 1.015 3.173 2.586 3.786 l 6.839 2.673 c 0.514 0.201 0.768 0.781 0.567 1.296 C 11.838 60.29 11.46 60.531 11.06 60.531 z" style="stroke: none; stroke-width: 1; stroke-dasharray: none; stroke-linecap: butt; stroke-linejoin: miter; stroke-miterlimit: 10; fill: rgb(0,0,0); fill-rule: nonzero; opacity: 1;" transform=" matrix(1 0 0 1 0 0) " stroke-linecap="round" />
	<path d="M 68.816 60.531 H 24.314 c -0.552 0 -1 -0.447 -1 -1 s 0.448 -1 1 -1 h 44.502 c 0.553 0 1 0.447 1 1 S 69.368 60.531 68.816 60.531 z" style="stroke: none; stroke-width: 1; stroke-dasharray: none; stroke-linecap: butt; stroke-linejoin: miter; stroke-miterlimit: 10; fill: rgb(0,0,0); fill-rule: nonzero; opacity: 1;" transform=" matrix(1 0 0 1 0 0) " stroke-linecap="round" />
	<path d="M 56.207 40.901 H 10.83 c -0.347 0 -0.668 -0.18 -0.851 -0.475 c -0.183 -0.295 -0.199 -0.663 -0.043 -0.973 l 6.844 -13.668 c 0.248 -0.494 0.849 -0.694 1.342 -0.446 c 0.494 0.247 0.694 0.848 0.446 1.342 l -6.119 12.22 h 43.758 c 1.023 0 2.017 -0.365 2.796 -1.027 l 3.753 -3.191 c 0.418 -0.357 1.052 -0.308 1.409 0.114 c 0.357 0.421 0.307 1.052 -0.114 1.41 l -3.753 3.191 C 59.157 40.367 57.704 40.901 56.207 40.901 z" style="stroke: none; stroke-width: 1; stroke-dasharray: none; stroke-linecap: butt; stroke-linejoin: miter; stroke-miterlimit: 10; fill: rgb(0,0,0); fill-rule: nonzero; opacity: 1;" transform=" matrix(1 0 0 1 0 0) " stroke-linecap="round" />
	<path d="M 75.44 57.47 c -0.27 0 -0.52 -0.11 -0.71 -0.3 c -0.18 -0.19 -0.29 -0.44 -0.29 -0.7 c 0 -0.14 0.03 -0.26 0.08 -0.39 c 0.05 -0.12 0.12 -0.23 0.21 -0.32 c 0.051 -0.05 0.101 -0.09 0.16 -0.12 c 0.05 -0.04 0.11 -0.07 0.17 -0.1 c 0.061 -0.021 0.12 -0.04 0.19 -0.05 c 0.319 -0.07 0.67 0.04 0.899 0.27 c 0.091 0.09 0.16 0.2 0.21 0.32 c 0.051 0.13 0.08 0.25 0.08 0.39 c 0 0.26 -0.1 0.51 -0.29 0.7 c -0.1 0.1 -0.21 0.17 -0.33 0.22 C 75.7 57.44 75.57 57.47 75.44 57.47 z" style="stroke: none; stroke-width: 1; stroke-dasharray: none; stroke-linecap: butt; stroke-linejoin: miter; stroke-miterlimit: 10; fill: rgb(0,0,0); fill-rule: nonzero; opacity: 1;" transform=" matrix(1 0 0 1 0 0) " stroke-linecap="round" />
	<path d="M 17.69 57.47 c -0.27 0 -0.52 -0.11 -0.71 -0.3 c -0.19 -0.18 -0.29 -0.44 -0.29 -0.7 c 0 -0.14 0.02 -0.26 0.07 -0.39 c 0.05 -0.12 0.13 -0.23 0.22 -0.32 c 0.37 -0.37 1.04 -0.37 1.41 0 c 0.19 0.18 0.3 0.44 0.3 0.71 c 0 0.26 -0.11 0.51 -0.3 0.7 c -0.09 0.1 -0.2 0.17 -0.32 0.22 C 17.95 57.44 17.82 57.47 17.69 57.47 z" style="stroke: none; stroke-width: 1; stroke-dasharray: none; stroke-linecap: butt; stroke-linejoin: miter; stroke-miterlimit: 10; fill: rgb(0,0,0); fill-rule: nonzero; opacity: 1;" transform=" matrix(1 0 0 1 0 0) " stroke-linecap="round" />
	<path d="M 43.05 40.901 c -0.452 0 -0.861 -0.308 -0.971 -0.767 l -3.28 -13.668 C 38.67 25.93 39 25.39 39.538 25.261 c 0.54 -0.127 1.077 0.202 1.206 0.739 l 3.28 13.668 c 0.129 0.537 -0.202 1.077 -0.739 1.206 C 43.206 40.893 43.127 40.901 43.05 40.901 z" style="stroke: none; stroke-width: 1; stroke-dasharray: none; stroke-linecap: butt; stroke-linejoin: miter; stroke-miterlimit: 10; fill: rgb(0,0,0); fill-rule: nonzero; opacity: 1;" transform=" matrix(1 0 0 1 0 0) " stroke-linecap="round" />
	<path d="M 22.262 40.902 c -0.108 0 -0.218 -0.018 -0.327 -0.055 c -0.522 -0.18 -0.799 -0.75 -0.619 -1.272 l 4.72 -13.668 c 0.18 -0.521 0.748 -0.799 1.272 -0.619 c 0.522 0.18 0.799 0.75 0.619 1.272 l -4.72 13.668 C 23.064 40.642 22.677 40.902 22.262 40.902 z" style="stroke: none; stroke-width: 1; stroke-dasharray: none; stroke-linecap: butt; stroke-linejoin: miter; stroke-miterlimit: 10; fill: rgb(0,0,0); fill-rule: nonzero; opacity: 1;" transform=" matrix(1 0 0 1 0 0) " stroke-linecap="round" />
</g>
</svg>